<svg id="Capa_1" enable-background="new 0 0 512 512" height="512" viewBox="0 0 512 512" width="512" xmlns="http://www.w3.org/2000/svg"><g><path d="m245.85 506.689h-229.921c-8.797 0-15.929-7.132-15.929-15.929v-151.296c0-52.261 42.366-94.626 94.626-94.626h56.598c52.261 0 94.626 42.366 94.626 94.626z" fill="#fe8d8d"/><path d="m496.071 506.689h-229.921v-167.225c0-52.261 42.366-94.626 94.626-94.626h56.598c52.261 0 94.626 42.366 94.626 94.626v151.296c0 8.797-7.132 15.929-15.929 15.929z" fill="#bceaf9"/><path d="m389.169 254.583h-.189c-44.073 0-80.088-34.505-82.502-77.975-.086-1.541 50.824-65.923 50.635-65.923h63.923s50.763 61.799 50.76 62.064c-.427 45.269-37.257 81.834-82.627 81.834z" fill="#f1d0a4"/><path d="m151.224 244.838h-28.299v261.851h122.925v-167.225c0-52.26-42.366-94.626-94.626-94.626z" fill="#fe5d94"/><path d="m417.374 244.838h-28.237v261.851h106.934c8.797 0 15.929-7.132 15.929-15.929v-151.296c0-52.26-42.366-94.626-94.626-94.626z" fill="#acceff"/><path d="m389.137 110.685v143.898h.032c45.37 0 82.199-36.565 82.628-81.833.002-.266-50.76-62.064-50.76-62.064h-31.9z" fill="#f1ba87"/><path d="m471.801 172.046v-31.936c0-45.584-37.038-82.537-82.726-82.537-45.688 0-82.726 36.953-82.726 82.537v31.936c0 1.531.049 3.051.132 4.561 38.328-1.765 72.47-19.514 95.88-46.729 17.862 20.766 41.973 36.021 69.422 42.872.002-.236.018-.468.018-.704z" fill="#d5985c"/><path d="m389.137 57.575v85.657c4.71-4.142 9.134-8.6 13.223-13.354 17.862 20.766 41.973 36.021 69.423 42.872.002-.236.018-.468.018-.704v-31.936c0-45.563-37.004-82.502-82.664-82.535z" fill="#a9663b"/><path d="m122.499 5.311h.127c30.675 0 55.542 24.867 55.542 55.542v37.284h-111.211v-37.284c0-30.675 24.867-55.542 55.542-55.542z" fill="#febd3f"/><path d="m122.925 5.319v92.818h55.242v-37.284c0-30.575-24.706-55.372-55.242-55.534z" fill="#e7a830"/><path d="m123.02 254.583h-.189c-45.636 0-82.631-36.995-82.631-82.631v-21.125c0-2.623.122-5.218.361-7.778l116.093-67.721c28.873 12.882 48.998 41.84 48.998 75.499v21.125c-.001 45.635-36.996 82.631-82.632 82.631z" fill="#ffe3c1"/><path d="m156.653 75.328-33.728 19.675v159.58h.095c45.636 0 82.631-36.995 82.631-82.631v-21.125c0-33.659-20.125-62.618-48.998-75.499z" fill="#f1d0a4"/><path d="m122.925 68.195c-43.09 0-78.48 32.872-82.366 74.852 12.08 8.654 26.882 13.765 42.888 13.765 40.669 0 73.638-32.894 73.638-73.47 0-2.704-.157-5.37-.442-7.998-10.298-4.592-21.708-7.149-33.718-7.149z" fill="#fd5"/><path d="m122.925 68.195v77.153c20.529-13.039 34.16-35.927 34.16-62.006 0-2.704-.157-5.37-.442-7.998-10.298-4.592-21.708-7.149-33.718-7.149z" fill="#febd3f"/><path d="m312.756 506.689h-113.512c-8.797 0-15.929-7.132-15.929-15.929v-53.759c0-39.31 31.867-71.177 71.177-71.177h3.016c39.31 0 71.177 31.867 71.177 71.177v53.759c0 8.797-7.132 15.929-15.929 15.929z" fill="#acceff"/><path d="m257.508 365.824h-1.508v140.865h56.756c8.797 0 15.929-7.132 15.929-15.929v-53.759c0-39.31-31.867-71.177-71.177-71.177z" fill="#989dec"/><path d="m256.057 376.446h-.114c-27.532 0-49.85-24.443-49.85-51.975v-10.62c0-27.532 22.319-49.85 49.85-49.85h.114c27.532 0 49.85 22.319 49.85 49.85v10.62c0 27.532-22.318 51.975-49.85 51.975z" fill="#f1d0a4"/><path d="m256.057 264.001h-.057v112.445h.057c27.532 0 49.85-24.443 49.85-51.975v-10.62c0-27.531-22.318-49.85-49.85-49.85z" fill="#f1ba87"/></g></svg>