<svg xmlns="http://www.w3.org/2000/svg" width="139.544" height="87.468" viewBox="0 0 139.544 87.468">
  <g id="Group_465" data-name="Group 465" transform="translate(-575.999 -22)">
    <g id="Group_346" data-name="Group 346" transform="translate(148.652 -159)">
      <path id="Union_1" data-name="Union 1" d="M26.027,79.107a14.73,14.73,0,0,1-2.235-3,12.953,12.953,0,0,1-1.334-3.279,9.938,9.938,0,0,1-.18-4.045,40.527,40.527,0,0,0-4.584-2.444l-.018-.008,0,0c-3.07-1.479-6.245-3.009-7.13-4.9a11,11,0,0,1-1.12-4.973,9.636,9.636,0,0,1,.889-3.8,10.29,10.29,0,0,1,2.347-3.273,4.824,4.824,0,0,1-1.7-1.065,9.112,9.112,0,0,1-2.538-4.881,9.276,9.276,0,0,1,1.055-7.011,16.333,16.333,0,0,0,1.553-3.154h0A7.863,7.863,0,0,1,8.1,30.931a5.9,5.9,0,0,1-.709-4.379A10.357,10.357,0,0,1,8.1,24.207H8.08c-.2.014-.422.022-.651.022-1.3,0-4.489-.246-6.015-2.527A7.716,7.716,0,0,1,.021,18.722a1.07,1.07,0,0,1,.088-.771c.008.027.767,2.715,2.772,2.972l.142.017a16.563,16.563,0,0,0,2.224.18,6.37,6.37,0,0,0,5.784-3.013c1.341-2.089,2.308-2.98,3.232-2.98.879,0,1.769.847,2.8,2.668a10.291,10.291,0,0,1,.917,6.471,14.621,14.621,0,0,1-1.9,5.417A6.055,6.055,0,0,1,14.156,31.7a2.063,2.063,0,0,1-.983.325H13.15l0,0a9.318,9.318,0,0,1,.185,2.629,9.425,9.425,0,0,1-.526,2.573A8.79,8.79,0,0,1,11.194,40c-1.343,1.56-1.266,2.669-.965,3.324a2.824,2.824,0,0,0,2.536,1.45A2.152,2.152,0,0,0,13.8,44.54c1.343-.742,3.943-4.425,4.235-4.842l0,0,0,0a4.737,4.737,0,0,1,1.14,2.5c.077.546.123,1.157.167,1.748l.006.073,0,.028v0c.138,1.9.282,3.861,1.294,4.716a6.648,6.648,0,0,0,3.892,1.664,1.922,1.922,0,0,0,1.512-.59,2.9,2.9,0,0,0,.464-2.324c-.314-2.564-2.3-5.364-3.894-7.614l0-.005,0-.007a16.392,16.392,0,0,1-2.128-3.48,11.073,11.073,0,0,1,.163-5.476l0,.007,0,0,0,.006,0,.008.008.013.007.015.019.033c1.042,1.847,4.562,8.123,6.146,11.335,1.791,3.632,5.36,5.712,6.053,5.712.086,0,.133-.027.141-.081l-.652-4.067c0-.029-.023-2.887.815-3.128a.993.993,0,0,1,.279-.027c.216,0,.53.026.808.049H34.3l.095.008h.017l.049,0,.052,0,.046,0c.483.037,1,.071,1.55.071C39.07,40.9,41,39.892,42,37.815c.7-1.454,1.189-2.132,1.534-2.132.177,0,.292.172.4.338l0,0a1.082,1.082,0,0,0,.18.226c.362.294-.257,4.389-.653,6.413A18.673,18.673,0,0,1,41.439,48.2a9.5,9.5,0,0,1-2.5,2.9,6.327,6.327,0,0,1-3.824,1.258c-.1,0-.19,0-.282-.006.6,2.513,1.432,2.8,1.467,2.815a1.855,1.855,0,0,1,1.3-.6,1.8,1.8,0,0,1,.652.127,2.007,2.007,0,0,1,1.116,1.8,2.04,2.04,0,0,1-1.279,1.954,2.149,2.149,0,0,1-.911.205A3.013,3.013,0,0,1,34.763,57.1a8.8,8.8,0,0,1-1.237-4.423,2.173,2.173,0,0,1-.382.036A4.537,4.537,0,0,1,30.1,50.815a12.63,12.63,0,0,1-1.3-1.894v0a5.9,5.9,0,0,1-.935,4.22,4.212,4.212,0,0,1-3.306,1.407h-.147a5.008,5.008,0,0,1-3.18-1.149,8.626,8.626,0,0,1-2.066-2.528A15.291,15.291,0,0,1,17.715,47.2s0,0,0,.007a19.531,19.531,0,0,1-1.1,2.668,17.409,17.409,0,0,1-3.623,4.985,3.467,3.467,0,0,0-1.4,3.1c.266,1.635,2.062,2.974,3.518,3.623,4.718,2.1,8.122,4.049,8.151,4.067v0A19.986,19.986,0,0,1,24.743,63.3c.8-1.074,1.967-2.354,3.035-2.354a1.208,1.208,0,0,1,.205.017,7.328,7.328,0,0,0-2.542,3.693,8.069,8.069,0,0,0-.391,2.094A8.123,8.123,0,0,1,27.357,69a7.147,7.147,0,0,1,1.16,2.833,8.2,8.2,0,0,1-.37,3.988c-.966,2.907-2.072,3.272-2.119,3.286Zm-1.8-7.263a7.754,7.754,0,0,0,2.286,3.821,4.136,4.136,0,0,0-.281-3.715,4.7,4.7,0,0,0-2.165-1.915A5.471,5.471,0,0,0,24.23,71.844ZM34.61,45.429c-.447.7.351,2.478.385,2.554a2.638,2.638,0,0,0,1.093.238,4.084,4.084,0,0,0,2.815-1.41,5.992,5.992,0,0,0,1.79-3.839,4.105,4.105,0,0,1-1.716,1.352,6.9,6.9,0,0,1-3,.884,2.947,2.947,0,0,1-.494-.039,1.568,1.568,0,0,0-.268-.026A.662.662,0,0,0,34.61,45.429ZM9.67,28.773c.184.282.574.419,1.192.419a7.8,7.8,0,0,0,1.311-.135,6.369,6.369,0,0,0-1.956-2.973h0C9.713,27.247,9.325,28.252,9.67,28.773Zm4.187-8.052,0,0c-.735,1.1-1.567,2.346-2.5,2.388h0A8.53,8.53,0,0,1,13.8,27.8c2.676-3.355,2.561-6.223,2.462-7.022a2.386,2.386,0,0,0-.668-1.58.38.38,0,0,0-.235-.086C14.928,19.116,14.431,19.86,13.856,20.721ZM35.557,61.1A89.222,89.222,0,0,0,48.9,56.114a14.052,14.052,0,0,0,5.311-4.351,7.06,7.06,0,0,0,1.121-2.241,11.117,11.117,0,0,1-2.435-2.013A19.85,19.85,0,0,1,47.8,35.641a20.7,20.7,0,0,1,.1-3.947,17.541,17.541,0,0,1,.829-3.718,18.712,18.712,0,0,0,3.537,5.466,19.787,19.787,0,0,1,3.608,5.236,18,18,0,0,1,1.859,7.948,6.28,6.28,0,0,0,1.294.144,3.712,3.712,0,0,0,2.794-1.106,4.661,4.661,0,0,0,1.057-3.54c-.127-1.977-2.242-4.41-4.921-7.489-.9-1.04-1.839-2.115-2.8-3.284a9.136,9.136,0,0,1-1.812-3.625,10.893,10.893,0,0,1-.264-3.43,12.387,12.387,0,0,1,.789-3.557,6.375,6.375,0,0,0,.638,2.321,30.4,30.4,0,0,0,4.829,7.326,22.349,22.349,0,0,1,4.692,8.46,16.007,16.007,0,0,1,.458,5.285l0,.082A9.173,9.173,0,0,1,63,48.325a4.937,4.937,0,0,1-3.924,2.557,4.081,4.081,0,0,1-1.332-.235A11.136,11.136,0,0,1,54.293,57a12.386,12.386,0,0,1-3.733,2.243l-.217.09c-1.311.556-14.651,1.756-14.786,1.769ZM50,38.809a12.854,12.854,0,0,0,6.13,7.979,4.221,4.221,0,0,0,.008-1.617A9.337,9.337,0,0,0,54.2,41a64.012,64.012,0,0,1-4.663-6.914A14.106,14.106,0,0,0,50,38.809Zm-23.133-7.3a9.247,9.247,0,0,1-2.251-8.039c1.379-6.792,6.994-9.286,6.592-11.9-2.251,1.085-5.145-1.97-3.376-4.341S32.979,6.07,33.14,9s-.884,5.024-3.537,8.2-3.778,7.758-.8,10.773,8.673.68,5.949-6.431c-.724-1.889.8-4.18.8-4.18s.241,1.568,2.573,2.573,5.869,1.246,8.843-4.663c-3.3,3.015-8.308.161-9.165-.322s.161-3.055.161-3.055,4.267-1.552,4.662-5.628c.4-4.14,2.653-6.11,3.7-6.271a11.638,11.638,0,0,0-.483,5.145c.358,1.7-1.286,6.07-4.985,7.878,6.271.71,7.4-3.591,7.879-3.7s1.126.857,1.286,2.09.588,9.217-7.075,12.22a6.777,6.777,0,0,1-5.628-.483s2.846,5.836-1.929,9.486a5.338,5.338,0,0,1-3.3,1.085A7.641,7.641,0,0,1,26.869,31.514Z" transform="translate(502.349 189.361)" fill="#fff"/>
      <path id="Path_12" data-name="Path 12" d="M580.344,198.939l3.807,1.563-1.633,3.98-3.807-1.563Z" transform="translate(-40.508 -9.516)" fill="#fff" fill-rule="evenodd"/>
      <path id="Path_13" data-name="Path 13" d="M630.1,313.525a8.517,8.517,0,0,1-.643,4.181,16.845,16.845,0,0,1-7.557,7.074C626.039,320.921,628.331,318.429,630.1,313.525Z" transform="translate(-63.419 -70.301)" fill="#bebebe" fill-rule="evenodd"/>
      <path id="Path_14" data-name="Path 14" d="M568.46,181a6.456,6.456,0,0,1-.482,3.859c-.588,1.142-3.5,5.627-7.718,7.4C564.4,188.4,566.691,185.9,568.46,181Z" transform="translate(-30.721 0)" fill="#bebebe" fill-rule="evenodd"/>
      <path id="Path_15" data-name="Path 15" d="M599.711,289.9a5.036,5.036,0,0,1,0,3.055c-.349.847-1.49,1.825-.643,2.412s2.85-1.954,3.216-.643.76,4.316-4.984,6.11c3.018-2.387,2.894-3.7,2.894-3.7s-2.542.552-3.055-1.286C596.461,293.415,599.711,289.9,599.711,289.9Z" transform="translate(-50.234 -57.767)" fill="#fff" fill-rule="evenodd"/>
      <path id="Path_16" data-name="Path 16" d="M597.5,330.99s.228,2.867-.8,4.341a26.347,26.347,0,0,1-11.094,7.235C590.223,339.833,595.73,335.894,597.5,330.99Z" transform="translate(-44.163 -79.566)" fill="#bebebe" fill-rule="evenodd"/>
      <path id="Path_17" data-name="Path 17" d="M569.789,331.675s-.844,4.663,2.251,5.627c-.763-2.813,2.507-2.1,2.412,0-.121,2.653-3.336,2.01-4.5.643S568.986,332.72,569.789,331.675Z" transform="translate(-35.427 -79.929)" fill="#bebebe" fill-rule="evenodd"/>
      <path id="Path_18" data-name="Path 18" d="M543.789,205.283s-2.532.421-2.573-1.769a1.849,1.849,0,0,1,2.894-1.608c.928.588,1.268,3.354-.483,6.914-1.328,2.7-5.627,3.859-5.627,3.859a22.021,22.021,0,0,0,3.63-3.4A9.7,9.7,0,0,0,543.789,205.283Z" transform="translate(-18.913 -10.938)" fill="#bebebe" fill-rule="evenodd"/>
    </g>
    <g id="Group_464" data-name="Group 464" transform="translate(862.852 1033.363)">
      <path id="Path_1137" data-name="Path 1137" d="M-139.016-987.9s4.073-1.426,8.165-7.81c4.438-6.923-2.84-13.668-10.65-6.745a3.3,3.3,0,0,1,1.42-2.308s-7.455-3.018-8.875,4.615S-139.016-987.9-139.016-987.9Z" transform="translate(-113.318)" fill="#fff"/>
      <g id="Group_463" data-name="Group 463" transform="translate(-276.97 -994.546)">
        <g id="Group_460" data-name="Group 460" transform="translate(0)">
          <path id="Path_1138" data-name="Path 1138" d="M-210.453-905.47s-11.005-12.958-7.455-19.881,3.905-9.94,3.018-13.668-3.55-5.148-2.663-.888-2.308,8.875-5.5,7.988-5.325-3.018-4.615-6.213,3.55-4.793,2.663-6.035c0,0-1.42-1.42-4.26,2.485S-235.3-917.363-210.453-905.47Z" transform="translate(231.176 944.418)" fill="#fff"/>
          <circle id="Ellipse_10" data-name="Ellipse 10" cx="2.485" cy="2.485" r="2.485" transform="translate(5.99 4.689)" fill="#fff"/>
        </g>
        <g id="Group_461" data-name="Group 461" transform="translate(28)">
          <path id="Path_1139" data-name="Path 1139" d="M-73.432-905.47s11.005-12.958,7.455-19.881-3.905-9.94-3.018-13.668,3.55-5.148,2.663-.888,2.308,8.875,5.5,7.988,5.325-3.018,4.615-6.213-3.55-4.793-2.663-6.035c0,0,1.42-1.42,4.26,2.485S-48.581-917.363-73.432-905.47Z" transform="translate(73.432 944.418)" fill="#fff"/>
          <circle id="Ellipse_11" data-name="Ellipse 11" cx="2.485" cy="2.485" r="2.485" transform="translate(9.763 4.689)" fill="#fff"/>
        </g>
        <g id="Group_462" data-name="Group 462" transform="translate(15.896 11.637)">
          <circle id="Ellipse_12" data-name="Ellipse 12" cx="2.485" cy="2.485" r="2.485" transform="translate(5.647 4.058)" fill="#fff"/>
          <path id="Path_1140" data-name="Path 1140" d="M-129.451-878.707c-1.243,1.065.621,1.686.8,3.639s.706,8.306-4.748,8.341c-5.455-.035-5.1-6.394-4.926-8.341s2.041-2.574.8-3.639-4.97,3.55-3.905,10.473,8.077,21.3,8.077,21.3,6.745-14.378,7.81-21.3S-128.209-879.772-129.451-878.707Z" transform="translate(141.622 878.86)" fill="#fff"/>
        </g>
      </g>
      <path id="Path_1141" data-name="Path 1141" d="M-218.394-861.516c-.355-3.55-1.953-13.135-1.775-14.023s-1.775-1.953-2.663.71.266,9.5-.621,11.449c0,0,2.84.71,1.6,3.373s-4.438,10.65-9.053,11.715a22.866,22.866,0,0,0,4.793-6.213,59.667,59.667,0,0,1,3.2-6.035c.355-.533-.888-3.2-4.083-.178s-6.39,9.053-10.828,10.3c-4.413,1.236-12.159,5.1-14.689,9.162-2.532-4.058-10.453-7.927-14.866-9.162-4.438-1.243-7.633-7.278-10.828-10.3s-4.438-.355-4.083.178a59.67,59.67,0,0,1,3.2,6.035,22.866,22.866,0,0,0,4.793,6.213c-4.615-1.065-7.81-9.053-9.053-11.715s1.6-3.373,1.6-3.373c-.888-1.953.266-8.787-.621-11.449s-2.84-1.6-2.663-.71-1.42,10.473-1.775,14.023,2.485,9.585,4.438,14.378,10.3,9.94,18.283,12.248c7.268,2.1,10.861,9.929,11.45,11.324v.214s.015-.039.044-.11c.029.072.044.11.044.11v-.219c.6-1.409,4.19-9.222,11.448-11.318,7.988-2.308,16.331-7.455,18.283-12.248S-218.039-857.966-218.394-861.516Z" transform="translate(0 -105.975)" fill="#fff"/>
    </g>
  </g>
</svg>
